<svg version="1" xmlns="http://www.w3.org/2000/svg" width="2190.667" height="2190.667" viewBox="0 0 1643.000000 1643.000000"><path d="M727 .7C639.6 6.6 565.3 25 482.5 61.3c-88.1 38.6-153.3 86.6-205.1 151.1-46.4 57.8-80.7 133-97.8 214.4-11.6 55-16.4 111-15.3 179.2.9 52.5 2.5 73.1 8.2 101.5 8.3 41.6 26.7 96 52 154.5 38.8 89.4 102 207.2 168.7 314.3l17.9 28.7-1 23.3c-2.7 57.8-12.3 109.2-31.2 166.7-24.3 73.6-64.3 151.2-108.7 210.6-9 12.1-16.2 25.9-16.2 30.9 0 1.4.9 3.4 2 4.5 2 2 3.3 2 331.4 2 312.7 0 329.5-.1 331.5-1.8 1.7-1.3 4.2-8.8 11.1-33.7 23.3-84.6 41.4-143.6 47.9-156.2 5.9-11.6 18.8-14.9 55-14 23.5.6 39.6 2.2 82 8.2 50.8 7.2 85.6 6.9 117.8-1 22.6-5.5 31.3-10.6 49-28.8 15.1-15.5 24.3-30.5 30.8-50 5.6-17 6.6-23.4 7.2-45.7.6-23.9-.3-33.9-5.4-60.8l-3.6-19.3 2.9-3c1.6-1.7 7.8-5.7 13.9-9.1 20.3-11.1 23.5-15.3 23.5-30.6 0-11-3.2-20.8-11-34.2l-4.9-8.5 2.2-3.8c1.2-2.1 6.1-8.6 11-14.5 14.1-17.1 16.2-23.2 11.2-32.9-4.3-8.3-9.4-41.5-9.8-64.8l-.2-10.8 24.5-10.6c13.5-5.9 29.2-13 35-15.8 32.7-16.2 60-37.4 66.6-51.8 2.4-5.3 2.6-6.4 2.2-17.3-.3-9.4-1-13.3-3.2-19.7-14.1-41.1-59.2-103.3-132.9-183.3l-15.9-17.2 6-13.3c18.4-40.3 28.1-76.1 32.8-120 2.3-21.7 1.5-72.7-1.5-94.7-5.7-41.4-17-83.1-34.1-125.5-7.3-18.2-27.8-59.8-39.4-80-21.3-37.1-55.3-84.9-76.5-107.8-5.1-5.5-26.6-21.7-49.1-36.9C1044.5 52.8 925.3 9 802.5 1 788.3.1 738.7-.1 727 .7zM797.5 14c132.7 8.6 264.9 60.6 389.6 153.1 13 9.7 15.8 12.3 25.1 23.7 48.6 59.1 90 131.8 114 199.7 10.9 30.9 19.6 66.6 23.9 98.5 2.9 22.1 3.7 63.9 1.5 84.7-4.9 46.2-17.7 90.8-37.1 129.4-5.5 10.9-5.5 10.9 9.8 27.2 77.9 83.6 127.8 152.7 138.8 192.2 4.8 17.4 1.1 25.6-18.4 40.7-18.4 14.1-39.3 25.4-78.8 42.2-18.4 7.9-23.3 10.4-26.4 13.6l-3.8 3.9.6 16.3c1.1 27.8 5 56.5 9.4 67.5 3 7.6 3 7.6-9.2 22.2-16.7 20.2-18 25.2-9.5 39.3 7.1 11.9 11.3 23.8 10.8 30.6-.6 6.9-2.9 9.2-17.4 17.1-8 4.4-12.6 7.7-16.7 12l-5.7 6v6.5c0 3.6 1.5 14.5 3.4 24.3 4.3 22.1 5.6 33.8 5.6 49.5 0 35.8-11.8 67.3-33.8 90.9-14.6 15.5-23.4 20.9-42.9 25.8-32 8.2-60.8 8.6-110.5 1.6-46.8-6.7-56.8-7.6-86.8-8.2-40.4-.8-50.6 1.3-61.4 12.6-5.7 6.1-6.7 7.9-12.2 22.9-7.1 19.4-34.4 111.6-46.5 157.4l-3.4 12.8H271l1.3-2.8c.6-1.5 5.2-8.1 10.1-14.7 44.7-60.3 85.2-138.7 109.5-212.5 20.2-61.5 29.7-114.9 31.7-179.5l.6-21-13.2-21C344.9 1073.8 276.9 947.8 237.5 857c-30.7-70.9-51.7-138-56.4-181-6.1-54.5-5-133 2.5-191 18-139.6 75.2-251.9 167.1-328.2C403.2 113.2 470.1 77.3 549.5 50 610.7 29 665.1 18.2 732 13.7c11.5-.8 51.1-.6 65.5.3z"/><path d="M728.5 85.7c-52.5 6.1-93.7 21.1-130.5 47.4l-6.5 4.6-15.8.6c-76.3 3.1-135.8 32.3-170 83.5-11.4 17-20.4 37.7-24.7 56.4l-2.2 9.7-11.6 7.8c-24.3 16.1-51 40.4-65.4 59.3-25.5 33.6-37.5 72.4-34 110 1.4 14 4.5 27.9 8.5 38l2.6 6.2-2.5 3.7c-3.3 5-8.8 19.1-11.3 28.7-4.3 17-5.4 27-5.4 49.4 0 50.7 9.2 74.9 40.3 106 21 21.1 45.8 37.9 87.6 59.6l18.9 9.8 17 16.6c24.6 24 37 31.8 67 42 8.3 2.8 22.5 7.1 31.7 9.5 9.2 2.4 19 5.6 21.8 7.1 9.4 5.1 16.1 14.8 18.1 26 .9 5.2.6 8-2.5 24.2-4.4 22.4-6.1 35.7-5.2 40.5 1.4 7.3 8.4 10 25.1 9.9 11-.1 28.2-2.4 29.5-3.9.4-.4 3.6-7.3 7.1-15.3 9.4-21.3 28.1-58.9 39.9-80 25-44.8 46.1-76 63.9-94.3C753.4 714.1 795.8 694 844 690c24.7-2.1 41.3-6.6 62-17 24.5-12.3 42-25.9 70-54.7 23.2-23.8 23-23.7 45.5-23.4 16.9.2 26.3-1 38-4.6 17.8-5.6 32.8-15.5 48.6-32 15.3-16 29.7-39.4 38.9-63.3 1.8-4.7 5.9-15 9-23 40.9-103 36.3-185-14-246.5-8.2-10-26.9-27.8-38-36.1-49.2-36.9-124.6-63.3-204.5-71.4-9.8-1-12.4-1.8-23.7-6.6C843.5 97.7 811 89.1 780.1 86c-9.5-.9-44.6-1.2-51.6-.3zM838 164.6c14 14.2 32.1 25.7 49.3 31.4 9.8 3.3 12.4 8.5 6.2 12.6-2.1 1.4-3 1.3-10.2-1.2-19.3-6.6-36.1-17.1-51.2-32-9.6-9.4-10.3-10.4-9.7-13 2.1-8 6.1-7.5 15.6 2.2zm-273.5 32.9c9.4 2.5 17 7.1 24.3 15 11.1 11.9 19.5 29.1 27.8 56.6l3.9 12.7 7 .7c13 1.3 28.6 4.5 63.9 13.4 19.3 4.9 37 9.2 39.2 9.6l4.2.6 3.8-5.8c5.9-8.9 18.9-21.8 28-27.9 15-10 33.2-17.3 58.4-23.4 15.1-3.6 18.3-3.8 20.4-.8 1.9 2.7 2.1 6.2.3 7.6-.6.6-7.5 2.5-15.2 4.2-32.7 7.5-53.6 17.2-68.8 31.9-6.6 6.3-14.4 15.8-13.6 16.5.2.2 5.1.8 10.8 1.4 9.1.8 10.7 1.3 12.4 3.3 1.9 2.4 1.6 6.6-.6 8.2-1.2.8-16 .3-24.8-.9l-4.6-.6-2.6 7.8c-5 15.4-7.7 37.4-7.7 64.2 0 12.1 0 12.3-2.5 13.4-3.7 1.7-7.6 0-8.7-3.7-1.2-4.1 0-38.5 1.8-51.5.8-5.8 2.6-14.6 4-19.5 1.4-5 2.7-9.9 3-11 .5-1.9-2.2-2.7-38.3-11.8-47-11.8-59.5-14-79.3-14-42.8.1-78 15.5-89.9 39.5-4.2 8.3-5.5 15.5-4.7 26.7.5 8 .3 9.8-1.1 11.3-1.7 1.9-5.9 2.4-8.1.9-2.3-1.4-3.6-14.2-2.3-22.6 2.3-15.7 7.5-25.8 19.6-38 17.1-17.3 40-27.2 69.3-29.8 8.9-.7 13.2-1.5 13.2-2.3 0-.7-2.1-7.7-4.6-15.6-8-24.9-16.6-40-27.3-48.2-4.9-3.7-14.9-7.6-19.5-7.6-3.6 0-5.9-2.4-5.9-6 0-6 4.2-7.2 14.8-4.5zm387.3 51.9c19.2 4.8 40.2 13.9 56.6 24.6l7.3 4.7 2.7-4.2c3.3-5.3 9.8-11.3 15.7-14.8 15.6-9 43.6-10.1 65-2.5 7.2 2.6 9.7 5.7 8 10.1-1.4 3.7-3.6 3.9-12.3 1.2-11.3-3.6-20.8-4.8-32.8-4.3-12.1.6-19.1 2.8-26.4 8.4-4.3 3.2-9.6 10.6-9.6 13.2 0 .7 2.6 4.3 5.8 8.1 10.7 12.8 20.4 33 27.7 58.1 4.7 16.4 5.4 21.8 3 23.6-2.4 1.7-6.9 1.8-8.2.1-.6-.6-2.9-7.8-5.2-15.9-8.6-31.1-20-53.3-33.2-65.3-9-8.1-30.9-20.6-48.6-27.6-11-4.3-25.4-7.8-37.1-8.7-5.6-.5-10.8-1.5-11.7-2.2-1.8-1.5-2-7.1-.2-8.9 1.9-2.1 21.1-.7 33.5 2.3zm-31.8 63c2.3 2.8 6.1 30.4 6.7 48.1.7 22.6-1 32.8-8.8 51.2-1.3 3.1-1.1 3.5 3.5 10.3 16 23.4 46.5 36.2 89.6 37.7 15.8.5 25.5-.8 33.4-4.7 2.3-1.1 5.1-2 6.1-2 2.8 0 5.5 3 5.5 6.1 0 3.8-3.5 6.3-13.4 9.6-7.7 2.6-9 2.7-27.6 2.7-15.8 0-21.7-.4-31-2.2-27.4-5.1-42.6-11.6-58.4-24.6-4.7-3.8-13.4-13.6-15.4-17.3-.9-1.5-1.7-1-6.5 3.8-12 12.3-25.5 20.7-55.8 35-41.6 19.7-60 32-73.8 49.4-18.5 23.2-22.1 43.4-9.7 54.2 5.2 4.6 9.4 5.6 21 5 18.7-.9 34.1-8.3 49.6-23.7 5.3-5.2 10.8-11 12.3-12.8 3-3.5 6-4.1 9.5-1.6 3.2 2.2 2.7 5-1.8 10.9-9.9 12.8-25.6 25.6-40.1 32.4-11.3 5.4-19.5 7.4-30.4 7.5-16.6 0-29.2-5.9-35-16.5-4-7.4-4.7-20.9-1.5-31.4 1.2-3.9 2.4-7.9 2.6-9.1.5-1.8-1-2.8-12.1-7.8-23.2-10.6-35.6-14-51-13.9-13 0-21.5 2.1-34.5 8.5-9.4 4.5-11.5 6.1-20.5 15.2-11.4 11.5-18.9 21.9-18.1 25.1.4 1.1.9 2.9 1.2 4.1 1.4 5.1-7.6 9.4-11.5 5.5-4.1-4.1-2.3-14 4.4-24.6 10.5-16.5 23.7-28.5 40-36.5 13.2-6.5 19.5-8 34.5-8.7 19.5-.8 34.7 3 63.5 15.8 9.2 4.1 11 4.7 11.7 3.4 2.8-4.9 13.8-17.3 20.5-23 13.5-11.6 27.6-20.1 59.3-35.7 16.8-8.2 34.8-17.8 40-21.3 18.2-12 29.8-27.3 34.7-45.5 2.7-10 2.4-42.3-.5-58.8-1.2-6.8-2.2-13.6-2.2-15.2 0-4.8 7.1-8 10-4.6zm-302.2 90.4c1.7 2.2 1.6 3.2-1.2 10.4-8.7 23.1-24.6 44.5-44.1 59.1-9.2 6.9-26.8 15.8-36.4 18.3-14.2 3.8-18 10.2-27.6 45.7-10.9 40.8-11.1 52.7-1.4 77.2 9.4 23.7 24.8 42.9 40.5 50.6 6.6 3.3 7.3 3.4 19.3 3.5 10.8.1 12.6.3 13.7 1.9 2 2.7 1.7 5.9-.7 8.1-1.8 1.7-3.7 1.9-14.8 1.9-11.9 0-13-.2-19.8-3.2l-7.2-3.1-1 3.2c-3.9 12.1-7.3 44.3-6.3 59.4.3 5 0 6.7-1.4 8.3-2.1 2.4-6.6 2.5-8.6.1-2.1-2.3-2.7-12.5-1.7-29.6 1-15.5 1.8-20.9 5.6-37.8l2.6-11.8-5.4-5.7c-17.7-18.7-30.9-47-33.4-71.5-.7-6.2-.9-6.7-2.6-5.7-2 1-3.9.3-28.5-10.9-29.6-13.6-47.4-15.7-60.8-7.2-16.9 10.8-23.3 39.3-14.1 63.6 3.3 8.9 1.9 12.4-5.1 12.4-7.6 0-14.3-34.8-10-52 5.3-21.1 21.1-36.8 40.4-40.1 8.3-1.5 19.6 0 32.4 4.1 9.4 3 45 18.2 47.6 20.2.9.8 1.2.2 1.2-2.3 0-9 12.8-56.1 18.5-68.6l3.3-7.2-5.6-.7c-18.2-2.2-35.4-11.5-50.7-27.5-8.6-9-18.5-23-18.5-26.3 0-2.8 2.9-5.6 5.9-5.6 3.5 0 3.9.4 9.3 8.7 9.6 14.5 23.7 27.2 37 33.2 9.3 4.2 16.1 5.6 26.8 5.5 11.5-.1 19.4-2.1 31.7-7.9 26.6-12.5 47.1-34.8 58.3-63.3 3.4-8.6 5.4-10.6 9.5-9.5 1.1.3 2.6 1.2 3.3 2.1zm63.4 181.9c2.6 2.3 2.3 4.1-2.2 13.5-16.4 34.6-13.3 74.8 8.4 105.7 3 4.3 5.5 8.4 5.6 9.2.5 3.3-.2 5-2.5 6.5-3.8 2.5-6.2.9-12.4-8-22.1-32-27.5-71.7-14.5-107.6 3-8.6 6.9-16.7 9.2-19.3 1.9-2.2 6-2.2 8.4 0z"/></svg>